<svg width="55" height="55" viewBox="0 0 55 55" fill="none" xmlns="http://www.w3.org/2000/svg">
  <rect width="55" height="55" rx="27.5" fill="#EFF1F3"/>
  <path fill-rule="evenodd" clip-rule="evenodd" d="M15.25 17.5C15.26 16.07 16.42 14.91 17.85 14.9H37.15C38.58 14.9 39.75 16.07 39.75 17.5V37.5C39.74 38.93 38.58 40.09 37.15 40.1H17.85C16.42 40.1 15.25 38.93 15.25 37.5V17.5ZM36 19H19V35L27 27C28 26 30 26 31 27L36 32V19ZM20.5 26C20.5 28 22 29.5 24 29.5C26 29.5 27.5 28 27.5 26C27.5 24 26 22.5 24 22.5C22 22.5 20.5 24 20.5 26Z" fill="#687787"/>
</svg>
